<svg width="18" height="13" viewBox="0 0 18 13" fill="none" xmlns="http://www.w3.org/2000/svg">
  <path
    d="M6.63196 1.01255C7.90791 0.813205 9.20708 0.813205 10.483 1.01255L10.8547 0.255099C10.8547 0.122215 10.9743 0.0956307 11.1204 0.122207C12.2051 0.322428 13.2618 0.65261 14.2676 1.10557C14.3749 1.14921 14.4671 1.22307 14.5332 1.31819C15.6887 3.00616 16.4677 4.9232 16.8172 6.93914C17.0226 8.15474 17.0761 9.39122 16.9765 10.62C16.9735 10.6964 16.9528 10.7709 16.9159 10.8378C16.879 10.9047 16.8271 10.9621 16.7642 11.0054C15.5442 11.8603 14.2007 12.5236 12.7804 12.9721C12.7544 12.9854 12.726 12.9931 12.6969 12.9949C12.6678 12.9967 12.6385 12.9925 12.6111 12.9825C12.5837 12.9725 12.5587 12.957 12.5375 12.9369C12.5164 12.9168 12.4996 12.8926 12.4882 12.8658C12.2359 12.4405 11.9569 12.002 11.6781 11.5369L13.1123 10.8459C12.9131 10.5669 12.8069 10.527 12.5545 10.6333C11.2708 11.2117 9.87904 11.5107 8.47118 11.5107C7.06332 11.5107 5.6714 11.2117 4.38765 10.6333C4.18846 10.5403 4.10878 10.6333 3.88303 10.8459L4.57358 11.2047L5.29073 11.5236L5.17126 11.7894L4.4807 12.8923C4.4807 12.9986 4.34782 12.9986 4.22831 12.8923C2.80168 12.4471 1.45638 11.774 0.244472 10.899C0.189285 10.8657 0.143382 10.8191 0.1109 10.7634C0.0784181 10.7076 0.0603779 10.6446 0.0585408 10.5801C-0.143629 8.37004 0.179556 6.14349 1.00149 4.08219C1.4004 3.07994 1.90335 2.12233 2.50208 1.22516C2.55622 1.14633 2.62916 1.08235 2.71443 1.03911C3.73818 0.581716 4.81248 0.24718 5.91482 0.0424805C6.04762 0.0424805 6.1141 0.0425162 6.16721 0.162111L6.63196 1.01255ZM12.9131 7.16502C12.8874 6.9675 12.8475 6.7721 12.7936 6.58033C12.7277 6.32626 12.594 6.09491 12.4069 5.91096C12.2197 5.72702 11.9863 5.59742 11.7312 5.53601C11.4762 5.4746 11.2092 5.48367 10.959 5.56229C10.7087 5.64091 10.4846 5.78617 10.3104 5.98242C10.007 6.3251 9.83949 6.76706 9.83949 7.22488C9.83949 7.68269 10.007 8.12466 10.3104 8.46733C10.452 8.6186 10.6251 8.73668 10.8176 8.81325C11.0101 8.88982 11.2171 8.92295 11.4239 8.91025C11.6306 8.89756 11.8319 8.83939 12.0136 8.73985C12.1953 8.64031 12.3529 8.50186 12.475 8.3344C12.7458 8.0036 12.8998 7.59249 12.9131 7.16502ZM7.29594 7.16502C7.26135 6.94505 7.21257 6.72756 7.14988 6.5139C7.06509 6.25289 6.90976 6.02042 6.70118 5.84219C6.4926 5.66396 6.23889 5.5469 5.96799 5.50398C5.71645 5.45933 5.45737 5.48828 5.22183 5.58727C4.98629 5.68626 4.78429 5.85115 4.64005 6.06215C4.37807 6.40642 4.2452 6.83177 4.26462 7.26405C4.28403 7.69633 4.45444 8.10806 4.74622 8.42743C4.87959 8.57983 5.04395 8.702 5.22832 8.78567C5.41268 8.86935 5.61285 8.91261 5.81529 8.91261C6.01773 8.91261 6.21774 8.86935 6.4021 8.78567C6.58646 8.702 6.75083 8.57983 6.88419 8.42743C7.16061 8.07068 7.30604 7.62963 7.29594 7.17832V7.16502Z"
    fill="rgb(214, 211, 209)" />
</svg>